<svg xmlns="http://www.w3.org/2000/svg" viewBox="0 0 512 512">
  <title>HALLUCINATE.md</title>
  <!-- Single compound path: ring (outer CW, inner CCW) + slash CW + H pieces CW.
       fill-rule="nonzero" ensures overlapping subpaths stay filled (no seams).
       H pieces extended 0.5px into slash band to prevent sub-pixel gaps.
       Slash direction: upper-left to lower-right (matches ISO prohibition sign). -->
  <path fill="currentColor" fill-rule="nonzero" d="
    M256,38 A218,218 0 0,1 256,474 A218,218 0 0,1 256,38 Z
    M256,74 A182,182 0 0,0 256,438 A182,182 0 0,0 256,74 Z
    M116.64,88.36 L423.64,395.36 A218,218 0 0,1 395.36,423.64 L88.36,116.64 A218,218 0 0,1 116.64,88.36 Z
    M336,308.43 L296,268.43 L262.57,235 L296,235 L296,156 L336,156 Z
    M217,189.43 L183.57,156 L217,156 Z
    M217,244.57 L240.43,268 L217,268 L217,356 L176,356 L176,203.57 Z
    M328.43,356 L296,356 L296,323.57 Z
  "/>
</svg>
